# xmcd
#
# Track frame offsets:
#	205
#	16897
#	34900
#	55267
#	74822
#	89270
#	101075
#	117615
#	132810
#	148210
#	167585
#	188132
#	208822
#	222047
#	236422
#	247470
#	268510
#	282845
#
# Disc length: 4069
#
# Revision: 6
# Processed by: cddbd v1.5.1PL0 Copyright (c) Steve Scherf et al.
# Submitted via: CDex 1.51
# Normalized: r5:TDELIM( - ),TSWAP
#
DISCID=1c0fe312
DTITLE=Various Artist - Q The Blues
DYEAR=1992
DGENRE=Blues
TTITLE0=Stevie Ray Vaughan - Pride and joy
TTITLE1=Muddy Waters - I'm your hoochie coochie man
TTITLE2=John Lee Hooker with Bonnie Raitt - I'm in the mood
TTITLE3=U2 and B. B. King - When love comes to town
TTITLE4=Lowell Fulson - Reconsider baby
TTITLE5=Sonny Boy Williamson - Don't start me to talkin'
TTITLE6=Sonny Terry with Johnny Winter and Willie Dixon - I think I got the blues
TTITLE7=The Jeff Healey Band - Don't let your chances go by
TTITLE8=Freddie King - Going down
TTITLE9=Cream - Crossroads
TTITLE10=George Thorogood and The Destroyers - Madison blues
TTITLE11=Albert Collins, Robert Cray and Johnny Copeland - Bring your fine self home
TTITLE12=Taj Mahal - Statesboro' blues
TTITLE13=Buddy Guy - Early in the morning
TTITLE14=Howlin' Wolf - The red rooster
TTITLE15=Albert Collins - Brick
TTITLE16=Johnny Winter - See see baby
TTITLE17=B. B. King - The thrill is gone
EXTD=YEAR: 1992
EXTT0=
EXTT1=
EXTT2=
EXTT3=
EXTT4=
EXTT5=
EXTT6=
EXTT7=
EXTT8=
EXTT9=
EXTT10=
EXTT11=
EXTT12=
EXTT13=
EXTT14=
EXTT15=
EXTT16=
EXTT17=
PLAYORDER=
